<?xml version="1.0" standalone="no"?>
<!DOCTYPE svg PUBLIC "-//W3C//DTD SVG 1.1//EN" "http://www.w3.org/Graphics/SVG/1.1/DTD/svg11.dtd">
<svg xmlns="http://www.w3.org/2000/svg"><metadata>This SVG WebFont was generated by YouWorkForThem.
Copyright (c) 2012 by Mariya Chughtai. All rights reserved.</metadata><defs><font horiz-adv-x="417" id="ywftsvg"><font-face ascent="1536" bbox="-43 -416 2114 1868" cap-height="1434" descent="-512" font-family="" font-stretch="normal" font-weight="600" panose-1="0 0 7 0 0 0 0 0 0 0" underline-position="0" underline-thickness="0" unicode-range="U+0020-FB02" units-per-em="2048" x-height="1024"/><missing-glyph d="M0 0v1434h1024v-1434h-1024zM512 809l348 522h-696zM573 717l349 -522v1044zM164 102h696l-348 523zM102 1239v-1044l349 522z" horiz-adv-x="1024"/><glyph d="M0 0v1434h1024v-1434h-1024zM512 809l348 522h-696zM573 717l349 -522v1044zM164 102h696l-348 523zM102 1239v-1044l349 522z" glyph-name=".notdef" horiz-adv-x="1024"/><glyph glyph-name="glyph1" horiz-adv-x="0"/><glyph glyph-name="glyph2" horiz-adv-x="682"/><glyph glyph-name="space" horiz-adv-x="745" unicode=" "/><glyph d="M295 346h-172v1090h172v-1090zM209 -20q-43 0 -75 30.5t-32 75.5q0 43 32 75t75 32t74.5 -32t31.5 -75q0 -45 -31.5 -75.5t-74.5 -30.5z" glyph-name="exclam" unicode="!"/><glyph d="M210 1452q44 0 75.5 -31.5t31.5 -74.5q0 -16 -3 -36t-16 -50.5t-33.5 -55t-60.5 -42t-93 -17.5q59 45 84 96q-39 6 -65 35t-26 70q0 43 31 74.5t75 31.5zM500 1452q43 0 74.5 -31.5t31.5 -74.5q0 -16 -3 -36t-16.5 -50.5t-34 -55t-60 -42t-93.5 -17.5q59 45 84 96 q-39 6 -64.5 35t-25.5 70q0 43 32 74.5t75 31.5z" glyph-name="quotedbl" horiz-adv-x="708" unicode="&quot;"/><glyph d="M956 571h244l-35 -165h-243l-86 -406h-170l84 406h-240l-86 -406h-170l84 406h-236l37 165h236l49 238h-234l37 166h234l98 459h170l-98 -459h241l99 459h170l-99 -459h246l-37 -166h-243zM596 809l-51 -238h241l52 238h-242z" glyph-name="numbersign" horiz-adv-x="1388" unicode="#"/><glyph d="M600 1536v-90q193 -20 305 -131l-108 -119q-70 61 -197 78v-461l45 -14q164 -45 259 -150.5t95 -269.5q0 -168 -112.5 -273.5t-286.5 -121.5v-97h-100v99q-104 10 -208 56t-179 124l108 127q53 -59 130 -94t149 -45v524l-31 10q-336 109 -336 363q0 92 33 166.5t86 120.5 t115.5 74t132.5 36v88h100zM500 852v416q-74 -18 -129.5 -69.5t-55.5 -141.5q1 -139 185 -205zM600 641v-485q100 14 163.5 75.5t63.5 147.5q0 98 -54 160.5t-173 101.5z" glyph-name="dollar" horiz-adv-x="1107" unicode="$"/><glyph d="M397.5 1452q114.5 0 196.5 -82t82 -197.5t-82 -196.5t-196.5 -81t-196.5 81t-82 196.5t82 197.5t196.5 82zM410 0h-156l805 1434h153zM397.5 1315q-61.5 0 -101.5 -40t-40 -102.5t40 -102.5t101.5 -40t101.5 40t40 102.5t-40 102.5t-101.5 40zM1080.5 541 q115.5 0 197.5 -82t82 -198t-82 -196.5t-197.5 -80.5t-196.5 80.5t-81 196.5t81 198t196.5 82zM1081.5 401q-61.5 0 -101.5 -38.5t-40 -101t40 -102.5t101.5 -40t101.5 40t40 102.5t-40 101t-101.5 38.5z" glyph-name="percent" horiz-adv-x="1472" unicode="%"/><glyph d="M1188 0l-148 174q-176 -188 -450 -192q-217 2 -349 128t-132 287q0 86 26.5 157t77.5 125t106.5 93t131.5 80q-102 123 -135 203t-29 153q10 113 108.5 178.5t243.5 65.5q150 0 253 -79t103 -216q0 -188 -270 -336l301 -356q20 57 31 119h184q-20 -145 -90 -269l266 -315 h-229zM461 1176q-4 -80 139 -246q76 43 125 76.5t69.5 61.5t26.5 46.5t6 42.5q0 63 -52 100t-130 37q-82 0 -132 -33.5t-52 -84.5zM934 303l-365 430q-61 -35 -90.5 -54.5t-76 -53t-67 -63.5t-37.5 -71.5t-17 -89.5q0 -109 87 -182.5t220 -75.5q227 4 346 160z" glyph-name="ampersand" horiz-adv-x="1488" unicode="&amp;"/><glyph d="M210 1452q44 0 75.5 -31.5t31.5 -74.5q0 -16 -3 -37t-16 -51.5t-33.5 -54t-60.5 -41t-93 -17.5q59 43 84 94q-39 6 -65 36t-26 71q0 43 31 74.5t75 31.5z" glyph-name="quotesingle" unicode="'"/><glyph d="M590 1509l67 -82q-152 -86 -267.5 -311t-115.5 -503.5t116 -500t269 -315.5l-69 -84q-86 33 -171 112t-155.5 192.5t-116 270t-45.5 324.5t45.5 326t116 272.5t156.5 193t170 105.5z" glyph-name="parenleft" horiz-adv-x="761" unicode="("/><glyph d="M106 1427l68 82q84 -27 170 -105.5t156.5 -193t114.5 -272.5t44 -326t-44 -324.5t-115.5 -270t-155.5 -192.5t-170 -112l-72 84q154 94 270.5 315.5t116.5 500t-116.5 502.5t-266.5 312z" glyph-name="parenright" horiz-adv-x="761" unicode=")"/><glyph d="M854 764l-133 -111l-195 246l-196 -246l-133 111l192 240l-287 137l84 149l246 -112v290h170v-292l252 116l82 -151l-279 -131z" glyph-name="asterisk" horiz-adv-x="1036" unicode="*"/><glyph d="M649 711h379v-166h-379v-379h-168v379h-379v166h379v379h168v-379z" glyph-name="plus" horiz-adv-x="1130" unicode="+"/><glyph d="M210 190q44 0 75.5 -30.5t31.5 -75.5q0 -14 -3 -34.5t-16 -51.5t-33.5 -54.5t-60.5 -42t-93 -18.5q57 45 84 97q-39 6 -65 35.5t-26 68.5q0 45 31 75.5t75 30.5z" glyph-name="comma" unicode=","/><glyph d="M727 508h-625v166h625v-166z" glyph-name="hyphen" horiz-adv-x="829" unicode="-"/><glyph d="M209 -20q-43 0 -75 30.5t-32 75.5q0 43 32 75t75 32t74.5 -32t31.5 -75q0 -45 -31.5 -75.5t-74.5 -30.5z" glyph-name="period" unicode="."/><glyph d="M926 1434l-645 -1434h-179l646 1434h178z" glyph-name="slash" horiz-adv-x="1028" unicode="/"/><glyph d="M692 1370q229 0 383 -191.5t154 -512.5q0 -291 -155.5 -482.5t-381.5 -191.5q-225 0 -376.5 190.5t-151.5 483.5q0 322 150.5 513t377.5 191zM692 1198q-160 0 -255 -141.5t-95 -390.5q0 -225 96.5 -363.5t253.5 -138.5q158 0 259.5 137t101.5 365q0 252 -99.5 392 t-261.5 140z" glyph-name="zero" horiz-adv-x="1392" unicode="0"/><glyph d="M373 1352v-1352h-176v1352h176z" glyph-name="one" horiz-adv-x="567" unicode="1"/><glyph d="M274 1094l-118 118q184 156 415 160q188 4 312 -110q117 -106 116 -275q-2 -115 -74.5 -193.5t-213.5 -144.5q-98 -45 -161 -84t-123 -95t-90 -131t-32 -171h692v-168h-876v141q2 109 31.5 199t73.5 153.5t113 120t132.5 93t151.5 75.5q102 45 153 89t53 116 q2 94 -63 156q-68 68 -188 67q-175 3 -304 -116z" glyph-name="two" horiz-adv-x="1142" unicode="2"/><glyph d="M248 1094l-127 123q199 160 452 159q178 0 296 -96t118 -264q0 -121 -70.5 -204t-185.5 -110q119 -25 192.5 -117.5t73.5 -234.5q0 -172 -119.5 -270t-306.5 -98q-252 0 -450 157l127 125q125 -109 303 -108q119 -2 193.5 59t74.5 168q0 104 -82 166.5t-248 66.5h-112 v158l100 4q330 0 330 217q0 94 -72.5 151.5t-181.5 57.5q-180 1 -305 -110z" glyph-name="three" horiz-adv-x="1122" unicode="3"/><glyph d="M918 354v-354h-173v356h-645v181l635 815h183v-830h104v-168h-104zM285 522h460v594z" glyph-name="four" horiz-adv-x="1132" unicode="4"/><glyph d="M254 256l-123 -123q88 -70 201.5 -109.5t230.5 -39.5q182 -2 304 117.5t122 289.5q0 86 -24.5 164t-72.5 143.5t-133 104.5t-196 39h-201v346h566v164h-733v-678h342q141 0 211.5 -73t70.5 -202q0 -109 -73.5 -179t-186.5 -68q-147 0 -305 104z" glyph-name="five" horiz-adv-x="1130" unicode="5"/><glyph d="M897 1370v-168q-225 0 -383 -108q-168 -117 -207 -326q96 141 277 141q184 0 308 -131t124 -332q0 -121 -48 -223t-152.5 -170.5t-248.5 -68.5q-188 0 -307 131t-147 331q-35 244 48 446t253 327q209 151 483 151zM565 743q-131 0 -205.5 -85t-74.5 -209q12 -129 89 -213 t191 -84q131 0 205 87t74 207q0 123 -74 210t-205 87z" glyph-name="six" horiz-adv-x="1142" unicode="6"/><glyph d="M352 0h-188l530 1186h-592v166h856z" glyph-name="seven" horiz-adv-x="1038" unicode="7"/><glyph d="M575 1376q53 0 107.5 -11t111 -36.5t99.5 -63.5t70.5 -98.5t27.5 -136.5q0 -244 -215 -323q115 -37 182.5 -131.5t67.5 -210.5q0 -96 -39 -172t-104.5 -121t-143 -67.5t-166.5 -22.5q-86 0 -163.5 22.5t-142 67.5t-103.5 120.5t-39 172.5q0 115 69.5 211t186.5 131 q-221 84 -221 323q0 90 40 161t104.5 108.5t132.5 57t138 19.5zM575 1214q-94 0 -164.5 -50t-70.5 -150q0 -90 61.5 -144.5t173.5 -56.5q113 2 175.5 56.5t62.5 144.5t-62.5 144t-175.5 56zM578 600q-131 -2 -198 -66.5t-67 -158.5q0 -119 78 -174.5t184 -57.5 q109 2 186 57.5t77 174.5q0 94 -67.5 158.5t-192.5 66.5z" glyph-name="eight" horiz-adv-x="1150" unicode="8"/><glyph d="M262 -16v168q195 0 344 88q193 119 246 346q-96 -141 -277 -142q-186 0 -310 131.5t-124 331.5q0 119 49.5 222.5t154 172t247.5 68.5q186 0 306 -131t146 -332q35 -244 -47 -445.5t-254 -326.5q-207 -151 -481 -151zM592 1202q-129 0 -203 -87t-74 -208q0 -123 74 -210 t203 -87q131 0 205.5 84t76.5 211q-12 129 -89.5 213t-192.5 84z" glyph-name="nine" horiz-adv-x="1177" unicode="9"/><glyph d="M209 735q43 0 74.5 -31.5t31.5 -74.5q0 -45 -31.5 -76t-74.5 -31t-75 31t-32 76q0 43 32 74.5t75 31.5zM209 193q43 0 74.5 -31t31.5 -76q0 -43 -31.5 -74.5t-74.5 -31.5t-75 31.5t-32 74.5q0 45 32 76t75 31z" glyph-name="colon" unicode=":"/><glyph d="M210 733q44 0 74.5 -30.5t30.5 -75.5q0 -43 -30.5 -75t-74.5 -32t-76 32t-32 75q0 45 32 75.5t76 30.5zM210 193q44 0 75.5 -32t31.5 -75q0 -16 -3 -35.5t-16 -50.5t-33.5 -55.5t-60.5 -42t-93 -17.5q57 43 84 97q-39 4 -65 33.5t-26 70.5q0 43 31 75t75 32z" glyph-name="semicolon" unicode=";"/><glyph d="M821 946l-463 -266l463 -266v-195l-700 410v102l700 410v-195z" glyph-name="less" horiz-adv-x="942" unicode="&lt;"/><glyph d="M1028 690h-926v166h926v-166zM1028 342h-926v166h926v-166z" glyph-name="equal" horiz-adv-x="1130" unicode="="/><glyph d="M805 731v-102l-703 -410v195l465 266l-465 266v195z" glyph-name="greater" horiz-adv-x="907" unicode=">"/><glyph d="M219 1174l-117 116q176 154 404 160q186 8 311 -100q123 -104 127 -275q2 -115 -61.5 -193.5t-186.5 -136.5q-53 -25 -79.5 -40t-55.5 -45.5t-40 -75.5t-11 -113h-178q0 94 18.5 159.5t59.5 110.5t85 74t117 64q78 35 120 78.5t42 115.5q0 96 -69 156q-72 63 -191 61 q-168 -1 -295 -116zM424 193q43 0 74.5 -32t31.5 -75q0 -45 -31.5 -75.5t-74.5 -30.5q-45 0 -76 30.5t-31 75.5q0 43 31 75t76 32z" glyph-name="question" horiz-adv-x="1046" unicode="?"/><glyph d="M979 -106l156 -156q-84 -18 -252 -19q-180 0 -315.5 44t-218.5 117t-133 182.5t-68.5 224t-18.5 257t18.5 256t70.5 221t136 179.5t224.5 115t326.5 43q143 0 259 -22.5t197 -60.5t139.5 -98.5t94 -126t56 -153.5t28 -170t7.5 -184v-320q0 -117 -80 -188.5t-205 -71.5 q-127 0 -211 64.5t-94 167.5q-102 -68 -228 -68q-176 0 -284.5 117.5t-108.5 308.5q0 201 107.5 314.5t285.5 113.5q135 0 228 -70v58h145v-723q4 -135 156 -135q123 0 123 151v279q0 84 -6.5 148.5t-21.5 135t-43 120.5t-74 98.5t-109.5 78t-154.5 48t-206 18.5 q-150 0 -261.5 -35t-178 -91t-105 -142t-53 -174.5t-14.5 -203t13 -203.5t52 -176t103.5 -144.5t173 -93.5t254.5 -36q61 1 90 5zM1075 346v422q-61 49 -188 49q-121 0 -183.5 -68.5t-62.5 -195.5t64.5 -196.5t181.5 -69.5q51 0 105 16t83 43z" glyph-name="at" horiz-adv-x="1812" unicode="@"/><glyph d="M1473 0h-187l-172 408h-661l-172 -408h-187l592 1434h193zM522 584h522l-262 637z" glyph-name="A" horiz-adv-x="1564" unicode="A"/><glyph d="M213 1434h547q172 0 289.5 -107.5t117.5 -271.5q0 -100 -46 -179t-128 -126q109 -45 173.5 -138.5t64.5 -214.5q0 -170 -121 -283.5t-297 -113.5h-600v1434zM393 1264v-445h324q117 0 191.5 59.5t74.5 163t-74.5 163t-191.5 59.5h-324zM393 647l2 -475h385 q113 0 190 65.5t77 172.5q0 104 -77 170.5t-190 66.5h-387z" glyph-name="B" horiz-adv-x="1337" unicode="B"/><glyph d="M1255 262l123 -119q-201 -162 -458 -161q-199 0 -369 97t-269.5 267t-99.5 371t99.5 370.5t269.5 267t369 97.5q260 0 458 -162l-121 -121q-150 111 -337 111q-233 0 -397.5 -165t-164.5 -398.5t164 -398t398 -164.5q185 -1 335 108z" glyph-name="C" horiz-adv-x="1484" unicode="C"/><glyph d="M213 1434h516q201 0 371 -96.5t269 -261.5t99 -359.5t-99 -359t-269 -261t-371 -96.5h-516v1434zM389 1262v-1090h340q233 0 397 161t164 384t-163.5 384t-397.5 161h-340z" glyph-name="D" horiz-adv-x="1648" unicode="D"/><glyph d="M1061 1270h-672v-447h660v-166h-660v-493h682v-164h-858v1434h848v-164z" glyph-name="E" horiz-adv-x="1177" unicode="E"/><glyph d="M1053 1270h-664v-479h643v-166h-643v-625h-176v1434h840v-164z" glyph-name="F" horiz-adv-x="1159" unicode="F"/><glyph d="M1360 684v-543q-201 -160 -457 -159q-201 0 -371 97t-269 267t-99 371t99 370.5t269 267t371 97.5q260 0 459 -162l-121 -121q-150 111 -338 111q-236 0 -398.5 -165t-162.5 -398.5t163 -398t398 -164.5q154 0 281 79v451h176z" glyph-name="G" horiz-adv-x="1560" unicode="G"/><glyph d="M1290 1436v-1436h-176v662h-725v-662h-176v1434h176v-600h725v602h176z" glyph-name="H" horiz-adv-x="1505" unicode="H"/><glyph d="M389 1434v-1434h-176v1434h176z" glyph-name="I" horiz-adv-x="604" unicode="I"/><glyph d="M788 1434v-803q0 -166 -49 -292t-138 -203t-205.5 -115.5t-258.5 -36.5h-43v172h45q217 -2 344 111.5t127 363.5v803h178z" glyph-name="J" horiz-adv-x="1001" unicode="J"/><glyph d="M709 881l563 -881h-209l-475 743l-197 -225v-518h-178v1434h178v-678l592 678h207z" glyph-name="K" horiz-adv-x="1366" unicode="K"/><glyph d="M391 166h641v-166h-819v1434h178v-1268z" glyph-name="L" horiz-adv-x="1124" unicode="L"/><glyph d="M1638 0h-176v1194l-536 -664l-537 666v-1196h-176v1434h201l512 -646l512 646h200v-1434z" glyph-name="M" horiz-adv-x="1851" unicode="M"/><glyph d="M1176 281v1153h176v-1434h-201l-762 1155v-1155h-176v1434h201z" glyph-name="N" horiz-adv-x="1566" unicode="N"/><glyph d="M902 1452q200 0 370 -97.5t269 -267t99 -370.5t-99 -371t-269 -267t-370 -97t-370 97t-269 267t-99 371t99 370.5t269 267t370 97.5zM902.5 1280q-234.5 0 -397.5 -165t-163 -398.5t163 -398t397.5 -164.5t398 164.5t163.5 398t-163.5 398.5t-398 165z" glyph-name="O" horiz-adv-x="1804" unicode="O"/><glyph d="M215 1436h485q209 0 331 -119t122 -318q0 -197 -119 -316.5t-332 -119.5h-313v-563h-174v1436zM391 1262v-527h301q131 0 208 74t77 190q0 117 -81 190t-204 73h-301z" glyph-name="P" horiz-adv-x="1316" unicode="P"/><glyph d="M1520 -16l-160 155q-201 -158 -457 -157q-201 0 -371 97t-269 267t-99 371t99 370.5t269 267t370 97.5t370 -97.5t269 -267t99 -370.5q0 -254 -155 -453l157 -155zM342 716.5q0 -233.5 163 -398t397.5 -164.5t398 164.5t163.5 398t-163.5 398.5t-398 165t-397.5 -165 t-163 -398.5z" glyph-name="Q" horiz-adv-x="1808" unicode="Q"/><glyph d="M213 1436h502q203 0 320.5 -114t117.5 -300q0 -160 -92 -268.5t-252 -132.5l401 -621h-206l-394 610h-221v-610h-176v1436zM389 1264v-482h320q121 0 193.5 66.5t72.5 173.5q0 106 -76 174t-190 68h-320z" glyph-name="R" horiz-adv-x="1374" unicode="R"/><glyph d="M590 647l-101 35q-164 47 -262 139t-98 238q0 184 124 289.5t298 103.5q209 -2 348 -137l-108 -119q-104 94 -240 88q-100 -2 -171 -61.5t-71 -157.5q0 -88 61.5 -144.5t190.5 -95.5l107 -34q150 -47 237.5 -147.5t87.5 -258.5q0 -182 -130 -291.5t-318 -109.5 q-119 -2 -234.5 44t-201.5 138l106 127q139 -150 328 -141q117 2 197.5 66.5t80.5 166.5q0 98 -58 159.5t-173 102.5z" glyph-name="S" horiz-adv-x="1095" unicode="S"/><glyph d="M1098 1270h-414v-1270h-176v1268h-414v166h1004v-164z" glyph-name="T" horiz-adv-x="1189" unicode="T"/><glyph d="M1370 1434v-899q0 -225 -165 -389t-414 -164q-248 0 -413 163.5t-165 389.5v899h180v-877q0 -170 116 -286.5t282 -116.5q168 0 283.5 116.5t117.5 286.5v877h178z" glyph-name="U" horiz-adv-x="1568" unicode="U"/><glyph d="M874 0h-194l-586 1434h180l502 -1201l502 1201h182z" glyph-name="V" horiz-adv-x="1554" unicode="V"/><glyph d="M1647 0h-195l-350 1145l-352 -1145h-191l-465 1434h182l379 -1141l351 1141h192l350 -1141l379 1141h182z" glyph-name="W" horiz-adv-x="2203" unicode="W"/><glyph d="M694 621l-403 -621h-197l488 750l-447 684h199l362 -560l359 560h198l-444 -689l485 -745h-198z" glyph-name="X" horiz-adv-x="1388" unicode="X"/><glyph d="M791 592v-592h-177v590l-520 844h193l415 -674l418 674h193z" glyph-name="Y" horiz-adv-x="1406" unicode="Y"/><glyph d="M1075 1268l-770 -1104h774v-164h-973v166l773 1104h-748v164h944v-166z" glyph-name="Z" horiz-adv-x="1185" unicode="Z"/><glyph d="M274 -121h134v-166h-306v1823h306v-166h-134v-1491z" glyph-name="bracketleft" horiz-adv-x="509" unicode="["/><glyph d="M926 0h-178l-646 1434h179z" glyph-name="backslash" horiz-adv-x="1028" unicode="\"/><glyph d="M408 -287h-306v166h134v1491h-134v166h306v-1823z" glyph-name="bracketright" horiz-adv-x="509" unicode="]"/><glyph d="M1022 659h-195l-264 463l-266 -463h-195l410 701h102z" glyph-name="asciicircum" horiz-adv-x="1124" unicode="^"/><glyph d="M1028 -281h-926v166h926v-166z" glyph-name="underscore" horiz-adv-x="1130" unicode="_"/><glyph d="M317 1434l148 -273h-158l-205 273h215z" glyph-name="grave" horiz-adv-x="567" unicode="`"/><glyph d="M227 803l-63 133q145 106 391 106q215 0 332 -120.5t119 -321.5v-600h-154v98q-47 -49 -145.5 -81.5t-196.5 -32.5q-180 0 -284.5 91t-104.5 265q0 156 108.5 250t307.5 92q154 -2 294 -68q-2 125 -78.5 196t-215.5 71q-197 0 -310 -78zM831 242v219q-131 63 -294 63 q-125 0 -185.5 -52t-60.5 -136q0 -184 237 -184q68 0 151.5 24.5t151.5 65.5z" glyph-name="a" horiz-adv-x="1128" unicode="a"/><glyph d="M344 1434v-480q117 82 272 84q213 2 341 -131t126 -405q-4 -270 -128 -394t-339 -124q-82 0 -159.5 28.5t-128.5 75.5v-88h-156v1434h172zM344 801v-563q94 -96 254 -97q164 0 236.5 92.5t72.5 268.5q0 172 -74.5 273.5t-234.5 101.5q-152 0 -254 -76z" glyph-name="b" horiz-adv-x="1222" unicode="b"/><glyph d="M879 219l120 -121q-143 -115 -327 -114q-219 0 -375 154.5t-156 373.5q0 221 156 374.5t375 153.5q184 0 329 -114l-120 -121q-92 68 -209 67q-152 0 -256.5 -104t-104.5 -255t104.5 -256t256.5 -105q117 -1 207 67z" glyph-name="c" horiz-adv-x="1130" unicode="c"/><glyph d="M1051 0h-156v88q-51 -47 -129 -75.5t-160 -28.5q-215 0 -339 123.5t-126 394.5q-4 272 124 405t341 131q156 -2 273 -84v480h172v-1434zM879 238v563q-102 76 -254 76q-160 0 -235 -101.5t-75 -273.5q0 -176 74 -268.5t236 -92.5q160 1 254 97z" glyph-name="d" horiz-adv-x="1222" unicode="d"/><glyph d="M948 227l121 -121q-137 -123 -377 -122q-143 0 -268 61t-204 184t-79 283q0 219 154 373.5t373 154.5q242 0 385 -172q109 -127 94 -260q-14 -125 -135 -149q-25 -4 -54 -4h-622q0 -135 102.5 -222.5t247.5 -87.5q168 0 262 82zM338 612h539q63 0 78.5 45t-23.5 97 q-33 55 -101.5 92t-162.5 37q-135 0 -229.5 -81t-100.5 -190z" glyph-name="e" horiz-adv-x="1277" unicode="e"/><glyph d="M692 1300h-96q-66 0 -113 -30.5t-47 -89.5v-156h242v-162h-242v-862h-172v862h-162v162h162v156q0 127 92.5 199.5t239.5 72.5h96v-152z" glyph-name="f" horiz-adv-x="794" unicode="f"/><glyph d="M225 -270l13 139q186 -76 366 -72q150 2 211.5 64.5t67.5 224.5q-92 -92 -277 -94q-213 0 -341 130t-124 400q2 270 126 394t339 124q82 0 160 -28.5t129 -75.5v88h156v-903q0 -248 -103.5 -363.5t-343.5 -111.5q-205 4 -379 84zM879 244v542q-94 96 -254 97 q-162 0 -236 -92.5t-74 -268.5q0 -172 75 -270t235 -98q143 0 254 90z" glyph-name="g" horiz-adv-x="1222" unicode="g"/><glyph d="M940 0v485q0 205 -73.5 300.5t-235.5 95.5q-137 0 -275 -88v-793h-174v1434h168v-500q145 106 320 104q215 -2 328.5 -139t113.5 -416v-483h-172z" glyph-name="h" horiz-adv-x="1275" unicode="h"/><glyph d="M268 1159q-43 0 -72.5 31t-29.5 73t29.5 72.5t72.5 30.5t74 -30.5t31 -72.5t-31 -73t-74 -31zM352 1024v-1024h-166v1024h166z" glyph-name="i" horiz-adv-x="524" unicode="i"/><glyph d="M483 1366q43 0 73 -30.5t30 -72.5t-30 -73t-73 -31t-73.5 31t-30.5 73t30.5 72.5t73.5 30.5zM567 1024v-1020q-2 -174 -87 -271.5t-257 -92.5h-47v151h47q176 0 176 211v1022h168z" glyph-name="j" horiz-adv-x="757" unicode="j"/><glyph d="M354 369v-369h-172v1434h172v-818l402 408h227l-369 -383l463 -641h-203l-376 512z" glyph-name="k" horiz-adv-x="1167" unicode="k"/><glyph d="M350 1434v-1434h-168v1434h168z" glyph-name="l" horiz-adv-x="512" unicode="l"/><glyph d="M340 1024v-90q133 100 297 104q254 8 373 -168q86 76 191.5 122t203.5 46q219 4 336 -134t117 -421v-483h-172v485q0 205 -74 301.5t-234 94.5q-74 0 -159.5 -36t-155.5 -87q41 -109 39 -275v-483h-172v485q0 205 -75 301.5t-237 94.5q-137 -2 -272 -88v-793h-174v1024 h168z" glyph-name="m" horiz-adv-x="2019" unicode="m"/><glyph d="M930 0v485q0 205 -75 301.5t-237 94.5q-137 -2 -272 -88v-793h-174v1024h168v-90q147 111 330 104q432 -10 432 -555v-483h-172z" glyph-name="n" horiz-adv-x="1265" unicode="n"/><glyph d="M672 1040q219 0 374.5 -154.5t155.5 -373.5q0 -221 -155.5 -374.5t-374.5 -153.5t-375 153.5t-156 374.5q0 219 156 373.5t375 154.5zM671.5 872q-149.5 0 -254 -105t-104.5 -256t104.5 -255t254 -104t254 104t104.5 255t-104.5 256t-254 105z" glyph-name="o" horiz-adv-x="1341" unicode="o"/><glyph d="M328 1024v-88q51 47 129 75.5t159 28.5q215 0 339 -123.5t128 -394.5q2 -272 -126 -404t-341 -132q-152 0 -272 88v-453h-172v1403h156zM344 786v-561q104 -78 254 -78q160 0 234.5 101.5t74.5 273.5q0 176 -72.5 268.5t-236.5 92.5q-160 -1 -254 -97z" glyph-name="p" horiz-adv-x="1222" unicode="p"/><glyph d="M879 -379v453q-121 -88 -273 -88q-213 0 -341 132t-124 404q2 270 126 394t339 124q82 0 160 -28.5t129 -75.5v88h156v-1403h-172zM879 225v561q-94 96 -254 97q-162 0 -236 -92.5t-74 -268.5q0 -172 75 -273.5t235 -101.5q150 0 254 78z" glyph-name="q" horiz-adv-x="1222" unicode="q"/><glyph d="M340 1024v-164q63 80 156.5 129t193.5 49q133 0 244 -88l-123 -123q-80 59 -170 56q-156 -2 -295 -168v-715h-174v1024h168z" glyph-name="r" horiz-adv-x="1024" unicode="r"/><glyph d="M102 145l109 109q55 -47 116.5 -75.5t110.5 -28.5q70 0 116 35.5t48 90.5q6 68 -39 112t-149 77q-135 41 -207 107.5t-72 183.5q0 123 89 203.5t214 80.5q86 2 149.5 -23.5t141.5 -82.5l-113 -113q-78 51 -159 53q-57 0 -100.5 -27.5t-47.5 -74.5q-14 -106 146 -154 q172 -51 245.5 -129.5t73.5 -210t-94 -215t-240 -83.5q-180 -1 -338 165z" glyph-name="s" horiz-adv-x="876" unicode="s"/><glyph d="M422 1024h256v-162h-256v-606q0 -61 47 -92t113 -31h96v-151h-96q-147 0 -239.5 72.5t-92.5 201.5v606h-148v162h148v258h172v-258z" glyph-name="t" horiz-adv-x="780" unicode="t"/><glyph d="M1104 0h-168v111q-154 -131 -350 -125q-422 12 -422 555v483h172v-483q0 -207 71.5 -303.5t229.5 -94.5q152 2 295 111v770h172v-1024z" glyph-name="u" horiz-adv-x="1277" unicode="u"/><glyph d="M668 0h-170l-408 1024h168l326 -813l325 813h168z" glyph-name="v" horiz-adv-x="1167" unicode="v"/><glyph d="M1098 0l-250 764l-250 -762h-172l-336 1022h168l254 -764l250 764h172l250 -764l254 764h168l-336 -1024h-172z" glyph-name="w" horiz-adv-x="1695" unicode="w"/><glyph d="M1001 0h-206l-256 379l-242 -379h-207l348 518l-348 506h207l260 -381l238 381h206l-346 -520z" glyph-name="x" horiz-adv-x="1091" unicode="x"/><glyph d="M1051 1024v-920q-4 -238 -122 -351t-364 -107q-203 2 -379 84l13 139q178 -74 366 -72q158 0 230.5 59.5t85.5 200.5l2 47q-139 -102 -308 -104q-219 -2 -336.5 135t-117.5 420v469h172v-469q0 -205 73.5 -300t235.5 -95q135 0 275 88v776h174z" glyph-name="y" horiz-adv-x="1175" unicode="y"/><glyph d="M827 0h-725v147l500 715h-473v162h690v-152l-500 -710h508v-162z" glyph-name="z" horiz-adv-x="929" unicode="z"/><glyph d="M682 1374h-96q-35 0 -57.5 -22.5t-22.5 -61.5v-432q0 -80 -45 -142.5t-119 -90.5q74 -29 119 -91.5t45 -142.5v-432q0 -39 22.5 -61.5t57.5 -22.5h96v-162h-203q-59 0 -102 44t-43 112v465q0 84 -63.5 143.5t-157.5 63.5h-11v168h11q94 2 157.5 62t63.5 144v465 q0 68 43 112t102 44h203v-162z" glyph-name="braceleft" horiz-adv-x="784" unicode="{"/><glyph d="M274 -123h-172v1557h172v-1557z" glyph-name="bar" horiz-adv-x="376" unicode="|"/><glyph d="M102 1536h203q59 0 102.5 -44t43.5 -112v-465q0 -84 62 -144t159 -62h10v-168h-10q-96 -4 -158.5 -63.5t-62.5 -143.5v-465q0 -68 -43 -112t-103 -44h-203v162h97q37 0 58.5 22.5t21.5 61.5v432q0 80 45 142.5t118 91.5q-74 29 -118.5 91t-44.5 142v432q0 39 -21.5 61.5 t-58.5 22.5h-97v162z" glyph-name="braceright" horiz-adv-x="784" unicode="}"/><glyph d="M854 530l-70 -71q-96 -94 -258 2l-125 74q-125 74 -196 0l-103 -99v182l72 72q94 94 258 0l125 -74q123 -74 197 -2l100 101v-185z" glyph-name="asciitilde" horiz-adv-x="956" unicode="~"/><glyph d="M209 1122q43 0 74.5 -30.5t31.5 -75.5q0 -43 -31.5 -75t-74.5 -32t-75 32t-32 75q0 45 32 75.5t75 30.5zM123 -334v1090h172v-1090h-172z" glyph-name="exclamdown" unicode="¡"/><glyph d="M680 1231v-191q176 -8 309 -114l-121 -121q-80 59 -188 65v-714q106 4 186 63l121 -121q-129 -100 -307 -112v-187h-100v193q-193 29 -322 175t-129 345t129 346.5t322 175.5v197h100zM580 164v698q-123 -27 -202 -124t-79 -225t79 -225t202 -124z" glyph-name="cent" horiz-adv-x="1114" unicode="¢"/><glyph d="M285 805l-31 180q-16 102 1 183t59 132.5t104.5 85t127 48t136.5 14.5q246 0 436 -154l-110 -108q-145 100 -312 94q-291 -14 -250 -326l23 -149h358v-164h-331l20 -115q47 -281 -84 -368h739v-166h-1062v166q152 6 202.5 95t22.5 259l-23 129h-202v164h176z" glyph-name="sterling" horiz-adv-x="1273" unicode="£"/><glyph glyph-name="currency" horiz-adv-x="1228" unicode="¤"/><glyph d="M963 907h233v-166h-350l-51 -84v-41h401v-165h-405v-451h-170v451h-402v165h399v41l-51 84h-348v166h232l-388 527h197l447 -615l448 615h195z" glyph-name="yen" horiz-adv-x="1413" unicode="¥"/><glyph d="M274 752h-172v682h172v-682zM274 -123h-172v682h172v-682z" glyph-name="brokenbar" horiz-adv-x="376" unicode="¦"/><glyph d="M842 1176l-66 -136q-49 31 -136 49.5t-157 18.5q-86 0 -134 -26.5t-48 -75.5q0 -72 135 -121l180 -66q121 -43 185.5 -123t64.5 -176q0 -104 -63 -182q61 -80 61 -178q0 -127 -98 -213t-260 -86q-231 0 -402 108l62 121q119 -59 291 -59q94 0 143 35.5t49 93.5 q0 104 -143 155l-203 76q-98 35 -146 100.5t-48 145.5q0 111 79 182q-78 74 -77 191q0 115 94 191.5t256 76.5q223 0 381 -102zM528 676l-159 59q-76 -25 -76 -98q0 -68 90 -100l162 -60q76 -31 82 -35q33 51 30 99q-6 90 -129 135z" glyph-name="section" horiz-adv-x="968" unicode="§"/><glyph d="M209 1229q-43 0 -75 31.5t-32 74.5t32 75t75 32q45 0 75.5 -32t30.5 -75t-30.5 -74.5t-75.5 -31.5zM666 1229q-43 0 -75 31.5t-32 74.5t32 75t75 32q45 0 75.5 -32t30.5 -75t-30.5 -74.5t-75.5 -31.5z" glyph-name="dieresis" horiz-adv-x="874" unicode="¨"/><glyph d="M837.5 1452q198.5 0 368.5 -98.5t268.5 -268.5t98.5 -368.5t-98.5 -368.5t-268.5 -268t-368.5 -98t-368.5 98t-268.5 268t-98.5 368.5t98.5 368.5t268.5 268.5t368.5 98.5zM837.5 1294q-239.5 0 -407.5 -169t-168 -408q0 -240 168 -409t407.5 -169t408.5 169t169 409 q0 238 -169 407.5t-408.5 169.5zM969 543l116 -117q-106 -88 -241 -88q-156 0 -267.5 111.5t-111.5 267.5t111.5 266.5t267.5 110.5q139 0 243 -90l-116 -115q-55 41 -121 41q-90 0 -151.5 -62.5t-61.5 -150.5t61.5 -149.5t151.5 -61.5q64 0 119 37z" glyph-name="copyright" horiz-adv-x="1675" unicode="©"/><glyph d="M227 803l-63 133q145 106 391 106q215 0 332 -120.5t119 -321.5v-600h-154v98q-47 -49 -145.5 -81.5t-196.5 -32.5q-180 0 -284.5 91t-104.5 265q0 156 108.5 250t307.5 92q154 -2 294 -68q-2 127 -78.5 197t-215.5 70q-197 0 -310 -78zM831 242v219q-131 63 -294 63 q-125 0 -185.5 -52t-60.5 -136q0 -184 237 -184q68 0 151.5 24.5t151.5 65.5z" glyph-name="ordfeminine" horiz-adv-x="1128" unicode="ª"/><glyph d="M498 741l-267 -168l267 -165v-181l-396 273v149l396 273v-181zM918 741l-265 -168l265 -165v-181l-394 273v149l394 273v-181z" glyph-name="guillemotleft" horiz-adv-x="1019" unicode="«"/><glyph d="M860 545h-758v166h924v-416h-166v250z" glyph-name="logicalnot" horiz-adv-x="1128" unicode="¬"/><glyph d="M727 508h-625v166h625v-166z" glyph-name="uni00AD" horiz-adv-x="829" unicode="­"/><glyph d="M837.5 1452q198.5 0 368.5 -98.5t268.5 -268.5t98.5 -368.5t-98.5 -368.5t-268.5 -268t-368.5 -98t-368.5 98t-268.5 268t-98.5 368.5t98.5 368.5t268.5 268.5t368.5 98.5zM837.5 1294q-239.5 0 -407.5 -169t-168 -408q0 -240 168 -409t407.5 -169t408.5 169t169 409 q0 238 -169 407.5t-408.5 169.5zM588 1092h264q106 0 170.5 -61.5t64.5 -156.5q0 -72 -40.5 -126t-108.5 -74l199 -307h-154l-168 290h-88v-290h-139v725zM729 965v-181h121q43 0 69.5 23.5t26.5 66.5q0 41 -26.5 66t-69.5 25h-121z" glyph-name="registered" horiz-adv-x="1675" unicode="®"/><glyph d="M743 1294h-641v140h641v-140z" glyph-name="macron" horiz-adv-x="845" unicode="¯"/><glyph d="M399 1452q123 0 210 -86t87 -209q0 -125 -87 -210t-210 -85t-210 85t-87 210q0 123 87 209t210 86zM399 1284q-53 0 -90 -37t-37 -90t37 -91t90 -38t90 38t37 90t-37 90t-90 38z" glyph-name="degree" horiz-adv-x="796" unicode="°"/><glyph d="M649 840h379v-166h-379v-277h-168v277h-379v166h379v278h168v-278zM1028 0h-926v168h926v-168z" glyph-name="plusminus" horiz-adv-x="1130" unicode="±"/><glyph d="M174 1266l-86 86q96 92 221 96q106 4 172 -57q63 -57 60 -148q-2 -63 -42 -102t-118 -74q-47 -23 -71.5 -38t-44 -51t-19.5 -89h289v-141h-447v92q0 80 18.5 139t53.5 95t62.5 53.5t72.5 35.5q37 14 49 19.5t28.5 22t16.5 38.5q2 33 -22 53q-25 23 -66 21q-70 0 -127 -51 z" glyph-name="uni00B2" horiz-adv-x="620" unicode="²"/><glyph d="M166 1280l-86 86q104 82 227 82q94 0 154.5 -49t60.5 -135q0 -61 -34.5 -104.5t-94.5 -57.5q61 -8 98 -56.5t37 -123.5q0 -84 -60 -134.5t-163 -52.5q-123 0 -225 82l86 86q57 -39 115 -39q41 0 67.5 21.5t26.5 58.5q0 86 -105 92h-51v127h47q49 0 76 22.5t27 61.5 q0 35 -25 55.5t-59 20.5q-62 2 -119 -43z" glyph-name="uni00B3" horiz-adv-x="606" unicode="³"/><glyph d="M262 1161h-160l150 273h213z" glyph-name="acute" horiz-adv-x="567" unicode="´"/><glyph d="M1192 1268h-78v-1602h-172v1602h-203v-1602h-170v965q-242 0 -368.5 104.5t-126.5 288.5q0 219 121.5 314.5t377.5 95.5h619v-166z" glyph-name="paragraph" horiz-adv-x="1294" unicode="¶"/><glyph d="M209 537q-43 0 -75 30.5t-32 75.5q0 43 32 75t75 32t74.5 -32t31.5 -75q0 -45 -31.5 -75.5t-74.5 -30.5z" glyph-name="periodcentered" unicode="·"/><glyph d="M276 -92h15q74 0 117 -43t43 -111t-46.5 -115t-117.5 -47h-185v95h174q33 0 52.5 19.5t19.5 47.5q0 29 -18.5 49.5t-53.5 20.5h-92v176h92v-92z" glyph-name="cedilla" horiz-adv-x="552" unicode="¸"/><glyph d="M256 1434v-693h-154v693h154z" glyph-name="uni00B9" horiz-adv-x="358" unicode="¹"/><glyph d="M672 1040q219 0 374.5 -154.5t155.5 -373.5q0 -221 -155.5 -374.5t-374.5 -153.5t-375 153.5t-156 374.5q0 219 156 373.5t375 154.5zM671.5 872q-149.5 0 -254 -105t-104.5 -256t104.5 -255t254 -104t254 104t104.5 255t-104.5 256t-254 105z" glyph-name="ordmasculine" horiz-adv-x="1341" unicode="º"/><glyph d="M498 649v-149l-396 -273v181l267 165l-267 168v181zM918 649v-147l-394 -275v181l264 165l-264 168v181z" glyph-name="guillemotright" horiz-adv-x="1019" unicode="»"/><glyph d="M256 741h-154v693h154v-693zM401 0h-178l645 1434h179zM1255 291h52v-133h-52v-158h-151v158h-322v141l312 393h161v-401zM920 291h184v237z" glyph-name="onequarter" horiz-adv-x="1409" unicode="¼"/><glyph d="M256 741h-154v693h154v-693zM393 0h-178l645 1434h178zM975 518l-86 86q92 88 211 96q115 8 186 -59q59 -57 55 -143q-2 -63 -41.5 -103.5t-117.5 -75.5q-47 -20 -72 -36.5t-44 -52t-19 -89.5h288v-141h-446v92q0 80 17.5 139.5t53 95t63.5 53t73 38.5q2 0 8 2 q31 12 44 18t27.5 21.5t14.5 36.5q2 31 -19 51q-27 27 -75 22q-68 -4 -121 -51z" glyph-name="onehalf" horiz-adv-x="1445" unicode="½"/><glyph d="M188 1280l-86 86q104 82 228 82q94 0 155.5 -49t61.5 -135q0 -61 -36 -104.5t-95 -57.5q61 -8 99 -56.5t38 -123.5q0 -84 -61.5 -134.5t-161.5 -52.5q-123 0 -228 82l86 86q59 -39 117 -39q39 0 65.5 21.5t26.5 58.5q0 86 -104 92h-49v127h47q49 0 74.5 22.5t25.5 61.5 q0 35 -23.5 55.5t-60.5 20.5q-60 2 -119 -43zM580 0h-179l646 1434h178zM1434 291h51v-133h-51v-158h-154v158h-322v141l314 393h162v-401zM1096 291h184v237z" glyph-name="threequarters" horiz-adv-x="1587" unicode="¾"/><glyph d="M623 1139q45 0 75.5 -31t30.5 -74q0 -45 -30.5 -75.5t-75.5 -30.5q-43 0 -75 30.5t-32 75.5q0 43 32 74t75 31zM537 647h178q0 -92 -18.5 -157.5t-59.5 -111.5t-85 -74t-118 -62q-78 -37 -120 -81t-42 -116q0 -94 70 -154q70 -63 190 -63q168 2 295 117l117 -117 q-178 -152 -403 -160q-188 -8 -312 103q-123 102 -127 272q-2 117 61.5 194.5t186.5 135.5q53 25 80 41t55.5 45.5t40 74.5t11.5 113z" glyph-name="questiondown" horiz-adv-x="1044" unicode="¿"/><glyph d="M893 1571h-160l-203 272h215zM1473 0h-187l-172 408h-661l-172 -408h-187l592 1434h193zM522 584h522l-262 637z" glyph-name="Agrave" horiz-adv-x="1564" unicode="À"/><glyph d="M831 1571h-159l147 272h215zM1473 0h-187l-172 408h-661l-172 -408h-187l592 1434h193zM522 584h522l-262 637z" glyph-name="Aacute" horiz-adv-x="1564" unicode="Á"/><glyph d="M1128 1559h-188l-156 182l-155 -182h-191l262 284h168zM1473 0h-187l-172 408h-663l-170 -408h-187l592 1434h193zM522 584h522l-262 637z" glyph-name="Acircumflex" horiz-adv-x="1564" unicode="Â"/><glyph d="M1059 1690l-49 -50q-74 -76 -197 -4l-94 58q-94 53 -146 2l-84 -84v160l58 59q72 72 194 0l95 -57q94 -53 149 0l74 75v-159zM1473 0h-187l-172 408h-661l-172 -408h-187l592 1434h193zM522 584h522l-262 637z" glyph-name="Atilde" horiz-adv-x="1564" unicode="Ã"/><glyph d="M555 1638q-43 0 -74.5 32t-31.5 75t31.5 74.5t74.5 31.5q45 0 76 -31.5t31 -74.5t-31 -75t-76 -32zM1014 1638q-45 0 -76 32t-31 75t31 74.5t76 31.5q43 0 74.5 -31.5t31.5 -74.5t-31.5 -75t-74.5 -32zM1473 0h-187l-172 408h-661l-172 -408h-187l592 1434h193zM522 584 h522l-262 637z" glyph-name="Adieresis" horiz-adv-x="1564" unicode="Ä"/><glyph d="M1473 0h-187l-172 408h-661l-172 -408h-187l590 1430q-55 27 -89 80t-34 118q0 92 64.5 156.5t156.5 64.5t158 -64.5t66 -156.5q0 -66 -34 -119t-91 -79zM784 1714q-37 0 -62.5 -24.5t-25.5 -61.5t26 -62.5t62 -25.5q35 0 60.5 25.5t25.5 62.5t-25.5 61.5t-60.5 24.5z M1044 584l-262 637l-260 -637h522z" glyph-name="Aring" horiz-adv-x="1564" unicode="Å"/><glyph d="M1620 1270h-670v-447h658v-166h-658v-493h682v-164h-858v408h-321l-172 -408h-187l594 1434h932v-164zM522 584h250v612z" glyph-name="AE" horiz-adv-x="1738" unicode="Æ"/><glyph d="M889 -92h16q74 0 116 -44t42 -111.5t-46 -114t-116 -46.5h-184v95h172q33 0 52.5 20.5t19.5 46.5q0 29 -18.5 49.5t-53.5 20.5h-90v168q-264 43 -440.5 247.5t-176.5 477.5q0 201 99.5 370.5t269.5 267t369 97.5q260 0 458 -162l-121 -121q-150 111 -337 111 q-233 0 -397.5 -165t-164.5 -398.5t164 -398t398 -164.5q186 0 335 108l123 -119q-201 -162 -458 -161h-31v-74z" glyph-name="Ccedilla" horiz-adv-x="1484" unicode="Ç"/><glyph d="M807 1571h-158l-203 272h213zM1061 1270h-672v-447h660v-166h-660v-493h682v-164h-858v1434h848v-164z" glyph-name="Egrave" horiz-adv-x="1177" unicode="È"/><glyph d="M659 1571h-157l147 272h213zM1061 1270h-672v-447h660v-166h-660v-493h682v-164h-858v1434h848v-164z" glyph-name="Eacute" horiz-adv-x="1177" unicode="É"/><glyph d="M973 1559h-191l-155 182l-156 -182h-190l262 284h168zM1061 1270h-672v-447h660v-166h-660v-493h682v-164h-858v1434h848v-164z" glyph-name="Ecircumflex" horiz-adv-x="1177" unicode="Ê"/><glyph d="M401 1638q-45 0 -75.5 32t-30.5 75t30.5 74.5t75.5 31.5q43 0 75 -31.5t32 -74.5t-32 -75t-75 -32zM858 1638q-45 0 -75.5 32t-30.5 75t30.5 74.5t75.5 31.5q43 0 75 -31.5t32 -74.5t-32 -75t-75 -32zM1063 1270h-672v-447h660v-166h-660v-493h684v-164h-860v1434h848 v-164z" glyph-name="Edieresis" horiz-adv-x="1181" unicode="Ë"/><glyph d="M442 1843l148 -272h-160l-201 272h213zM500 1434v-1434h-176v1434h176z" glyph-name="Igrave" horiz-adv-x="696" unicode="Ì"/><glyph d="M281 1571h-158l147 272h213zM389 1434v-1434h-176v1434h176z" glyph-name="Iacute" horiz-adv-x="604" unicode="Í"/><glyph d="M649 1559h-190l-156 182l-156 -182h-190l262 284h168zM393 0h-176v1434h176v-1434z" glyph-name="Icircumflex" horiz-adv-x="604" unicode="Î"/><glyph d="M74 1638q-45 0 -76 32t-31 75t31 74.5t76 31.5q43 0 74.5 -31.5t31.5 -74.5t-31.5 -75t-74.5 -32zM530 1638q-43 0 -74.5 32t-31.5 75t31.5 74.5t74.5 31.5q45 0 76 -31.5t31 -74.5t-31 -75t-76 -32zM391 1434v-1434h-176v1434h176z" glyph-name="Idieresis" horiz-adv-x="604" unicode="Ï"/><glyph d="M289 1434h516q199 0 370 -96.5t270 -261.5t99 -359.5t-99 -359t-270 -261t-370 -96.5h-516v639h-219v168h219v627zM465 172h340q233 0 397 161t164 384t-164 384t-397 161h-340v-455h229v-168h-229v-467z" glyph-name="Eth" horiz-adv-x="1716" unicode="Ð"/><glyph d="M1075 1690l-49 -50q-76 -76 -197 -4l-96 58q-94 53 -145 2l-84 -84v160l59 59q72 72 193 0l94 -57q96 -53 149 0l76 75v-159zM1176 281v1153h176v-1434h-201l-762 1155v-1155h-176v1434h201z" glyph-name="Ntilde" horiz-adv-x="1566" unicode="Ñ"/><glyph d="M874 1843l148 -272h-160l-203 272h215zM902 1452q200 0 370 -97.5t269 -267t99 -370.5t-99 -371t-269 -267t-370 -97t-370 97t-269 267t-99 371t99 370.5t269 267t370 97.5zM902.5 1280q-234.5 0 -397.5 -165t-163 -398.5t163 -398t397.5 -164.5t398 164.5t163.5 398 t-163.5 398.5t-398 165z" glyph-name="Ograve" horiz-adv-x="1804" unicode="Ò"/><glyph d="M944 1571h-160l148 272h215zM902 1452q200 0 370 -97.5t269 -267t99 -370.5t-99 -371t-269 -267t-370 -97t-370 97t-269 267t-99 371t99 370.5t269 267t370 97.5zM902.5 1280q-234.5 0 -397.5 -165t-163 -398.5t163 -398t397.5 -164.5t398 164.5t163.5 398t-163.5 398.5 t-398 165z" glyph-name="Oacute" horiz-adv-x="1804" unicode="Ó"/><glyph d="M1247 1559h-188l-156 182l-155 -182h-191l262 284h168zM902 1452q200 0 370 -97.5t269 -267t99 -370.5t-99 -371t-269 -267t-370 -97t-370 97t-269 267t-99 371t99 370.5t269 267t370 97.5zM902.5 1280q-234.5 0 -397.5 -165t-163 -398.5t163 -398t397.5 -164.5 t398 164.5t163.5 398t-163.5 398.5t-398 165z" glyph-name="Ocircumflex" horiz-adv-x="1804" unicode="Ô"/><glyph d="M1192 1690l-49 -50q-76 -74 -199 -2l-94 56q-94 55 -145 4l-84 -84v160l59 59q72 70 192 -2l95 -55q96 -55 149 0l76 75v-161zM902 1452q200 0 370 -97.5t269 -267t99 -370.5t-99 -371t-269 -267t-370 -97t-370 97t-269 267t-99 371t99 370.5t269 267t370 97.5z M902.5 1280q-234.5 0 -397.5 -165t-163 -398.5t163 -398t397.5 -164.5t398 164.5t163.5 398t-163.5 398.5t-398 165z" glyph-name="Otilde" horiz-adv-x="1804" unicode="Õ"/><glyph d="M674 1638q-43 0 -75 32t-32 75t32 74.5t75 31.5q45 0 75.5 -31.5t30.5 -74.5t-30.5 -75t-75.5 -32zM1133 1638q-45 0 -76 32t-31 75t30.5 74.5t76.5 31.5q43 0 74.5 -31.5t31.5 -74.5t-31.5 -75t-74.5 -32zM902 1452q200 0 370 -97.5t269 -267t99 -370.5t-99 -371 t-269 -267t-370 -97t-370 97t-269 267t-99 371t99 370.5t269 267t370 97.5zM902.5 1280q-234.5 0 -397.5 -165t-163 -398.5t163 -398t397.5 -164.5t398 164.5t163.5 398t-163.5 398.5t-398 165z" glyph-name="Odieresis" horiz-adv-x="1804" unicode="Ö"/><glyph d="M874 895l-268 -266l268 -269l-118 -118l-269 268l-266 -268l-119 118l269 269l-269 266l119 119l266 -269l269 269z" glyph-name="multiply" horiz-adv-x="976" unicode="×"/><glyph d="M1350 1536l-82 -180q170 -96 271 -266t101 -373q0 -201 -99 -371t-269 -267t-369 -97q-123 0 -235 38l-56 -122h-178l84 190q-162 98 -258 265t-96 364q0 201 99 370.5t269 267t371 97.5q111 0 215 -33l53 117h179zM592 248l455 1014q-70 18 -144 18q-236 0 -398.5 -165 t-162.5 -398q0 -145 66.5 -269t183.5 -200zM1196 1198l-459 -1020q80 -25 166 -24q233 0 397 164.5t164 398.5q0 152 -72.5 278.5t-195.5 202.5z" glyph-name="Oslash" horiz-adv-x="1804" unicode="Ø"/><glyph d="M801 1772l76 -177l-209 97l-97 176zM1370 1434v-899q0 -225 -165 -389t-414 -164q-248 0 -413 163.5t-165 389.5v899h180v-877q0 -170 116 -286.5t282 -116.5q168 0 283.5 116.5t117.5 286.5v877h178z" glyph-name="Ugrave" horiz-adv-x="1568" unicode="Ù"/><glyph d="M819 1571h-160l148 272h215zM1370 1434v-899q0 -225 -165 -389t-414 -164q-248 0 -413 163.5t-165 389.5v899h180v-877q0 -170 116 -286.5t282 -116.5q168 0 283.5 116.5t117.5 286.5v877h178z" glyph-name="Uacute" horiz-adv-x="1568" unicode="Ú"/><glyph d="M1137 1559h-191l-155 182l-156 -182h-191l263 284h167zM1370 1434v-899q0 -225 -165 -389t-414 -164q-248 0 -413 163.5t-165 389.5v899h180v-877q0 -170 116 -286.5t282 -116.5q168 0 283.5 116.5t117.5 286.5v877h178z" glyph-name="Ucircumflex" horiz-adv-x="1568" unicode="Û"/><glyph d="M565 1638q-43 0 -74.5 32t-31.5 75t31.5 74.5t74.5 31.5q45 0 76 -31.5t31 -74.5t-31 -75t-76 -32zM1024 1638q-45 0 -75.5 32t-30.5 75t30.5 74.5t75.5 31.5q43 0 74.5 -31.5t31.5 -74.5t-31.5 -75t-74.5 -32zM1370 1434v-899q0 -225 -165 -389t-414 -164 q-248 0 -413 163.5t-165 389.5v899h180v-877q0 -170 116 -286.5t282 -116.5q168 0 283.5 116.5t117.5 286.5v877h178z" glyph-name="Udieresis" horiz-adv-x="1568" unicode="Ü"/><glyph d="M745 1571h-157l147 272h213zM791 592v-592h-177v590l-520 844h193l415 -674l418 674h193z" glyph-name="Yacute" horiz-adv-x="1406" unicode="Ý"/><glyph d="M389 1180l293 -2q199 2 313.5 -107.5t114.5 -294.5q0 -180 -112.5 -290.5t-313.5 -110.5h-295v-375h-176v1434h176v-254zM391 1006v-459h287q115 0 185.5 63.5t70.5 165.5t-74 166t-182 64h-287z" glyph-name="Thorn" horiz-adv-x="1273" unicode="Þ"/><glyph d="M156 0v1067q0 180 131 281.5t366 101.5q246 0 379 -105.5t133 -277.5q0 -102 -51 -183t-141 -132q109 -53 174 -147.5t65 -211.5q0 -174 -129 -282.5t-319 -110.5h-305v172h270q131 0 215 60.5t84 172t-85 177t-228 65.5v180q129 2 197.5 61.5t68.5 164.5q0 111 -82 168 t-242 59q-326 -2 -325 -227v-1053h-176z" glyph-name="germandbls" horiz-adv-x="1394" unicode="ß"/><glyph d="M709 1176h-158l-203 272h213zM227 803l-63 133q145 106 391 106q215 0 332 -120.5t119 -321.5v-600h-154v98q-47 -49 -145.5 -81.5t-196.5 -32.5q-180 0 -284.5 91t-104.5 265q0 156 108.5 250t307.5 92q154 -2 294 -68q-2 125 -78.5 196t-215.5 71q-197 0 -310 -78z M831 242v219q-131 63 -294 63q-125 0 -185.5 -52t-60.5 -136q0 -88 59.5 -136t177.5 -48q68 0 151.5 24.5t151.5 65.5z" glyph-name="agrave" horiz-adv-x="1128" unicode="à"/><glyph d="M569 1176h-159l147 272h215zM227 803l-63 133q145 106 391 106q215 0 332 -120.5t119 -321.5v-600h-154v98q-47 -49 -145.5 -81.5t-196.5 -32.5q-180 0 -284.5 91t-104.5 265q0 156 108.5 250t307.5 92q154 -2 294 -68q-2 125 -78.5 196t-215.5 71q-197 0 -310 -78z M831 242v219q-131 63 -294 63q-125 0 -185.5 -52t-60.5 -136q0 -184 237 -184q68 0 151.5 24.5t151.5 65.5z" glyph-name="aacute" horiz-adv-x="1128" unicode="á"/><glyph d="M891 1165h-191l-155 181l-156 -181h-190l262 283h168zM227 803l-63 133q145 106 391 106q215 0 332 -120.5t119 -321.5v-600h-154v98q-47 -49 -145.5 -81.5t-196.5 -32.5q-180 0 -284.5 91t-104.5 265q0 156 108.5 250t307.5 92q154 -2 294 -68q-2 127 -78.5 197 t-215.5 70q-197 0 -310 -78zM831 242v219q-131 63 -294 63q-125 0 -185.5 -52t-60.5 -136q0 -88 59.5 -136t177.5 -48q68 0 151.5 24.5t151.5 65.5z" glyph-name="acircumflex" horiz-adv-x="1128" unicode="â"/><glyph d="M850 1296l-49 -49q-76 -76 -199 -4l-94 57q-94 53 -146 3l-83 -84v159l59 60q70 72 192 0l95 -56q94 -55 149 -2l76 76v-160zM227 803l-63 133q145 106 391 106q215 0 332 -120.5t119 -321.5v-600h-154v98q-47 -49 -145.5 -81.5t-196.5 -32.5q-180 0 -284.5 91 t-104.5 265q0 156 108.5 250t307.5 92q154 -2 294 -68q-2 127 -78.5 197t-215.5 70q-197 0 -310 -78zM831 242v219q-131 63 -294 63q-125 0 -185.5 -52t-60.5 -136q0 -88 59.5 -136t177.5 -48q68 0 151.5 24.5t151.5 65.5z" glyph-name="atilde" horiz-adv-x="1128" unicode="ã"/><glyph d="M328 1245q-45 0 -76 31t-31 75t31 74.5t76 30.5q43 0 74.5 -30.5t31.5 -74.5t-31.5 -75t-74.5 -31zM784 1245q-45 0 -75.5 31t-30.5 75t30.5 74.5t75.5 30.5t76 -30.5t31 -74.5t-31 -75t-76 -31zM227 803l-63 133q145 106 391 106q215 0 332 -120.5t119 -321.5v-600h-154 v98q-47 -49 -145.5 -81.5t-196.5 -32.5q-180 0 -284.5 91t-104.5 265q0 156 108.5 250t307.5 92q154 -2 294 -68q-2 125 -78.5 196t-215.5 71q-197 0 -310 -78zM831 242v219q-131 63 -294 63q-125 0 -185.5 -52t-60.5 -136q0 -88 59.5 -136t177.5 -48q68 0 151.5 24.5 t151.5 65.5z" glyph-name="adieresis" horiz-adv-x="1128" unicode="ä"/><glyph d="M594 1563q92 0 157.5 -65.5t65.5 -156.5q0 -92 -64.5 -156.5t-158.5 -64.5q-92 0 -156.5 63.5t-64.5 157.5q0 90 64.5 156t156.5 66zM594 1427q-35 0 -60.5 -25.5t-25.5 -60.5q0 -37 25.5 -62.5t60.5 -25.5q37 0 62.5 26t25.5 62q0 35 -25.5 60.5t-62.5 25.5zM227 803 l-63 133q145 106 391 106q215 0 332 -120.5t119 -321.5v-600h-154v98q-47 -49 -145.5 -81.5t-196.5 -32.5q-180 0 -284.5 91t-104.5 265q0 156 108.5 250t307.5 92q154 -2 294 -68q-2 127 -78.5 197t-215.5 70q-197 0 -310 -78zM831 242v219q-131 63 -294 63 q-125 0 -185.5 -52t-60.5 -136q0 -184 237 -184q68 0 151.5 24.5t151.5 65.5z" glyph-name="aring" horiz-adv-x="1128" unicode="å"/><glyph d="M227 803l-63 133q145 106 391 106q303 0 393 -241q66 109 180.5 174t247.5 65q242 0 385 -170q109 -129 94 -262q-14 -125 -135 -149q-25 -4 -53 -4h-623q0 -135 102.5 -222.5t248.5 -87.5q168 0 262 82l121 -121q-137 -123 -377 -122q-117 0 -222.5 51t-172.5 137v-172 h-154v98q-47 -49 -145.5 -81.5t-196.5 -32.5q-180 0 -284.5 91t-104.5 265q0 156 108.5 250t307.5 92q154 -2 294 -68q-2 125 -78.5 196t-215.5 71q-197 0 -310 -78zM1047 612h538q63 0 78.5 45t-23.5 99q-33 53 -101.5 90t-162.5 37q-135 0 -229 -81t-100 -190zM831 242 v219q-131 63 -294 63q-125 0 -185.5 -52t-60.5 -136q0 -88 59.5 -136t177.5 -48q68 0 151.5 24.5t151.5 65.5z" glyph-name="ae" horiz-adv-x="1984" unicode="æ"/><glyph d="M547 -152v152q-176 41 -291 183.5t-115 328.5q0 221 156 374.5t375 153.5q184 0 329 -114l-120 -121q-92 68 -209 67q-152 0 -256.5 -104t-104.5 -255t104.5 -256t256.5 -105q117 0 207 67l120 -121q-137 -109 -315 -114l-47 2v-54h16q72 0 116 -45t44 -108 q0 -70 -46 -116t-118 -46h-184v94h172q35 0 53.5 20.5t18.5 47.5q0 31 -17.5 50t-54.5 19h-90z" glyph-name="ccedilla" horiz-adv-x="1130" unicode="ç"/><glyph d="M848 1176h-160l-203 272h215zM948 227l121 -121q-137 -123 -377 -122q-143 0 -268 61t-204 184t-79 283q0 219 155 373.5t372 154.5q242 0 385 -172q109 -127 94 -260q-14 -125 -135 -149q-25 -4 -54 -4h-622q0 -135 102.5 -222.5t247.5 -87.5q168 0 262 82zM338 612h539 q57 0 74.5 36t-11.5 81q-25 61 -96.5 107.5t-175.5 46.5q-135 0 -229.5 -81t-100.5 -190z" glyph-name="egrave" horiz-adv-x="1277" unicode="è"/><glyph d="M645 1176h-160l148 272h215zM948 227l121 -121q-137 -123 -377 -122q-143 0 -268 61t-204 184t-79 283q0 219 155 373.5t372 154.5q242 0 385 -172q109 -127 94 -260q-14 -125 -135 -149q-25 -4 -54 -4h-622q0 -135 102.5 -222.5t247.5 -87.5q168 0 262 82zM338 612h539 q59 0 75.5 39t-14.5 86q-29 59 -99.5 102.5t-170.5 43.5q-135 0 -229.5 -81t-100.5 -190z" glyph-name="eacute" horiz-adv-x="1277" unicode="é"/><glyph d="M1012 1165h-191l-155 181l-156 -181h-188l260 283h168zM948 227l121 -121q-137 -123 -377 -122q-143 0 -268 61t-204 184t-79 283q0 219 154 373.5t373 154.5q242 0 385 -172q109 -127 94 -260q-14 -125 -135 -149q-25 -4 -54 -4h-622q0 -135 102.5 -222.5t247.5 -87.5 q168 0 262 82zM338 612h539q63 0 78.5 42t-19.5 94q-33 55 -102.5 95t-165.5 40q-135 0 -229.5 -82.5t-100.5 -188.5z" glyph-name="ecircumflex" horiz-adv-x="1277" unicode="ê"/><glyph d="M438 1245q-45 0 -75.5 31t-30.5 75t30.5 74.5t75.5 30.5q43 0 75 -30.5t32 -74.5t-32 -75t-75 -31zM895 1245q-43 0 -75 31t-32 75t32 74.5t75 30.5q45 0 75.5 -30.5t30.5 -74.5t-30.5 -75t-75.5 -31zM948 227l121 -121q-137 -123 -377 -122q-143 0 -268 61t-204 184 t-79 283q0 219 154 373.5t373 154.5q242 0 385 -172q109 -127 94 -260q-14 -125 -135 -149q-25 -4 -54 -4h-622q0 -135 102.5 -222.5t247.5 -87.5q168 0 262 82zM338 612h539q61 0 77.5 41t-18.5 92q-31 55 -100.5 96.5t-167.5 41.5q-135 0 -229.5 -81t-100.5 -190z" glyph-name="edieresis" horiz-adv-x="1277" unicode="ë"/><glyph d="M397 1434l148 -273h-160l-203 273h215zM516 0h-168v1024h168v-1024z" glyph-name="igrave" horiz-adv-x="724" unicode="ì"/><glyph d="M283 1161h-160l147 273h215zM385 0h-166v1024h166v-1024z" glyph-name="iacute" horiz-adv-x="591" unicode="í"/><glyph d="M874 1149h-190l-156 182l-155 -182h-191l262 285h168zM616 0h-167v1024h167v-1024z" glyph-name="icircumflex" horiz-adv-x="1046" unicode="î"/><glyph d="M290 1229q-44 0 -76 31.5t-32 74.5t32 75t76 32t74.5 -32t30.5 -75t-30.5 -74.5t-74.5 -31.5zM748 1229q-45 0 -76 31.5t-31 74.5t30.5 75t76.5 32q43 0 74.5 -32t31.5 -75t-31.5 -74.5t-74.5 -31.5zM606 0h-168v1024h168v-1024z" glyph-name="idieresis" horiz-adv-x="1026" unicode="ï"/><glyph d="M301 1368v168q242 0 436 -125l146 107l73 -95l-116 -86q150 -133 220 -344t42 -479q-27 -242 -150 -386t-321 -144q-223 0 -345 150.5t-122 381.5q0 242 127 392.5t321 150.5q98 0 173 -46t122 -122q-39 223 -200 350l-168 -125l-74 94l117 86q-129 72 -281 72zM631 893 q-139 0 -217 -105.5t-78 -271.5q0 -164 76.5 -264t218.5 -100q125 0 206 97t93 267q0 170 -79 273.5t-220 103.5z" glyph-name="eth" horiz-adv-x="1257" unicode="ð"/><glyph d="M920 1288l-50 -49q-76 -74 -198 -2l-94 55q-94 55 -146 4l-84 -84v158l60 60q72 72 192 0l94 -56q96 -55 150 0l76 76v-162zM340 1024v-90q147 111 330 104q432 -10 432 -555v-483h-172v485q0 205 -75 301.5t-237 94.5q-135 -2 -272 -88v-793h-174v1024h168z" glyph-name="ntilde" horiz-adv-x="1265" unicode="ñ"/><glyph d="M840 1161h-160l-203 273h215zM672 1040q219 0 374.5 -154.5t155.5 -373.5q0 -221 -155.5 -374.5t-374.5 -153.5t-375 153.5t-156 374.5q0 219 156 373.5t375 154.5zM671.5 872q-149.5 0 -254 -105t-104.5 -256t104.5 -255t254 -104t254 104t104.5 255t-104.5 256 t-254 105z" glyph-name="ograve" horiz-adv-x="1341" unicode="ò"/><glyph d="M670 1161h-160l147 273h215zM672 1040q219 0 374.5 -154.5t155.5 -373.5q0 -221 -155.5 -374.5t-374.5 -153.5t-375 153.5t-156 374.5q0 219 156 373.5t375 154.5zM671.5 872q-149.5 0 -254 -105t-104.5 -256t104.5 -255t254 -104t254 104t104.5 255t-104.5 256t-254 105 z" glyph-name="oacute" horiz-adv-x="1341" unicode="ó"/><glyph d="M1016 1149h-191l-155 182l-156 -182h-190l262 285h168zM672 1040q219 0 374.5 -154.5t155.5 -373.5q0 -221 -155.5 -374.5t-374.5 -153.5t-375 153.5t-156 374.5q0 219 156 373.5t375 154.5zM671.5 872q-149.5 0 -254 -105t-104.5 -256t104.5 -255t254 -104t254 104 t104.5 255t-104.5 256t-254 105z" glyph-name="ocircumflex" horiz-adv-x="1341" unicode="ô"/><glyph d="M969 1280l-49 -49q-76 -76 -199 -4l-94 57q-94 53 -146 2l-84 -84v160l58 59q72 72 194 0l94 -57q94 -53 150 0l76 76v-160zM672 1040q219 0 374.5 -154.5t155.5 -373.5q0 -221 -155.5 -374.5t-374.5 -153.5t-375 153.5t-156 374.5q0 219 156 373.5t375 154.5zM671.5 872 q-149.5 0 -254 -105t-104.5 -256t104.5 -255t254 -104t254 104t104.5 255t-104.5 256t-254 105z" glyph-name="otilde" horiz-adv-x="1341" unicode="õ"/><glyph d="M444 1229q-43 0 -74.5 31.5t-31.5 74.5t31.5 75t74.5 32q45 0 76 -32t31 -75t-31 -74.5t-76 -31.5zM903 1229q-45 0 -75.5 31.5t-30.5 74.5t30.5 75t75.5 32q43 0 75 -32t32 -75t-32 -74.5t-75 -31.5zM672 1040q219 0 374.5 -154.5t155.5 -373.5q0 -221 -155.5 -374.5 t-374.5 -153.5t-375 153.5t-156 374.5q0 219 156 373.5t375 154.5zM671.5 872q-149.5 0 -254 -105t-104.5 -256t104.5 -255t254 -104t254 104t104.5 255t-104.5 256t-254 105z" glyph-name="odieresis" horiz-adv-x="1341" unicode="ö"/><glyph d="M529 979q44 0 76 -32t32 -75q0 -45 -32 -75.5t-76 -30.5t-74.5 30.5t-30.5 75.5q0 43 30.5 75t74.5 32zM950 444h-848v168h848v-168zM527 289q44 0 76 -31t32 -76q0 -43 -32 -73.5t-76 -30.5t-74.5 30.5t-30.5 73.5q0 45 30.5 76t74.5 31z" glyph-name="divide" horiz-adv-x="1052" unicode="÷"/><glyph d="M1030 1126l-76 -168q113 -72 180.5 -189.5t67.5 -256.5q0 -221 -155.5 -374.5t-374.5 -153.5q-76 0 -148 20l-47 -106h-178l78 174q-109 72 -172.5 187.5t-63.5 252.5q0 219 156 373.5t375 154.5q68 0 133 -16l47 102h178zM449 229l284 637q-31 6 -61 6 q-150 0 -254.5 -105t-104.5 -255q1 -177 136 -283zM885 803l-291 -643q39 -8 78 -8q150 0 254 104t104 256q0 88 -38.5 164t-106.5 127z" glyph-name="oslash" horiz-adv-x="1341" unicode="ø"/><glyph d="M774 1176h-160l-202 272h213zM1104 0h-168v111q-154 -131 -350 -125q-422 12 -422 555v483h172v-483q0 -207 71.5 -303.5t229.5 -94.5q154 2 295 111v770h172v-1024z" glyph-name="ugrave" horiz-adv-x="1277" unicode="ù"/><glyph d="M659 1176h-157l147 272h213zM1104 0h-168v111q-154 -131 -350 -125q-422 12 -422 555v483h172v-483q0 -207 71.5 -303.5t229.5 -94.5q154 2 295 111v770h172v-1024z" glyph-name="uacute" horiz-adv-x="1277" unicode="ú"/><glyph d="M977 1165h-189l-155 181l-156 -181h-190l262 283h168zM1104 0h-168v111q-154 -131 -350 -125q-422 12 -422 555v483h172v-483q0 -207 71.5 -303.5t229.5 -94.5q152 2 295 111v770h172v-1024z" glyph-name="ucircumflex" horiz-adv-x="1277" unicode="û"/><glyph d="M406 1374q43 0 74.5 -30.5t31.5 -74.5t-31.5 -75t-74.5 -31q-45 0 -76 31t-31 75t31 74.5t76 30.5zM862 1374q45 0 76 -30.5t31 -74.5t-31 -75t-76 -31q-43 0 -74.5 31t-31.5 75t31.5 74.5t74.5 30.5zM1104 0h-168v111q-154 -131 -350 -125q-422 12 -422 555v483h172 v-483q0 -207 71.5 -303.5t229.5 -94.5q152 2 295 111v770h172v-1024z" glyph-name="udieresis" horiz-adv-x="1277" unicode="ü"/><glyph d="M592 1161h-158l148 273h213zM1051 1024v-920q-4 -238 -122 -351t-364 -107q-203 2 -379 84l13 139q178 -74 366 -72q158 0 230.5 59.5t85.5 200.5l2 47q-139 -102 -308 -104q-219 -2 -336.5 135t-117.5 420v469h172v-469q0 -205 73.5 -300t235.5 -95q135 0 275 88v776 h174z" glyph-name="yacute" horiz-adv-x="1175" unicode="ý"/><glyph d="M328 1434v-498q51 47 129 75.5t159 28.5q215 0 339 -123.5t128 -394.5q2 -272 -126 -404t-341 -132q-152 0 -272 88v-490h-172v1850h156zM344 786v-561q104 -78 254 -78q160 0 235.5 101.5t75.5 273.5q0 176 -73.5 268.5t-237.5 92.5q-160 -1 -254 -97z" glyph-name="thorn" horiz-adv-x="1222" unicode="þ"/><glyph d="M348 1229q-45 0 -75.5 31.5t-30.5 74.5t30.5 75t75.5 32q43 0 75 -32t32 -75t-32 -74.5t-75 -31.5zM807 1229q-45 0 -76 31.5t-31 74.5t31 75t76 32q43 0 74.5 -32t31.5 -75t-31.5 -74.5t-74.5 -31.5zM1051 1024v-920q-4 -238 -122 -351t-364 -107q-203 2 -379 84l13 139 q178 -74 366 -72q158 0 230.5 59.5t85.5 200.5l2 47q-139 -102 -308 -104q-219 -2 -336.5 135t-117.5 420v469h172v-469q0 -205 73.5 -300t235.5 -95q135 0 275 88v776h174z" glyph-name="ydieresis" horiz-adv-x="1175" unicode="ÿ"/><glyph d="M1255 0v72q-164 -90 -352 -90q-201 0 -371 97t-269 267t-99 371t99 370.5t269 267t371 97.5q188 0 352 -90v72h859v-172h-682v-437h682v-170h-682v-483h682v-172h-859zM1255 281v872q-152 127 -352 127q-236 0 -398.5 -165t-162.5 -398.5t163 -398t398 -164.5 q200 0 352 127z" glyph-name="OE" horiz-adv-x="2220" unicode="Œ"/><glyph d="M1864 242l121 -121q-137 -137 -416 -137q-145 0 -267 72.5t-186 193.5q-63 -121 -183 -193.5t-261 -72.5q-221 0 -376 153.5t-155 374.5q0 219 155 373.5t376 154.5q141 0 261 -72.5t183 -193.5q61 121 181 193.5t262 72.5q250 0 397 -174q109 -129 94 -260 q-14 -123 -135 -147q-25 -4 -53 -4h-635q0 -127 100 -214t242 -89q211 0 295 90zM1229 621h551q80 0 82 61q4 68 -82 129q-88 63 -221 63q-129 0 -226.5 -74.5t-103.5 -178.5zM671.5 872q-149.5 0 -254 -105t-104.5 -256t104.5 -255t254 -104t254 104t104.5 255t-104.5 256 t-254 105z" glyph-name="oe" horiz-adv-x="2181" unicode="œ"/><glyph d="M475 1638q-45 0 -75.5 32t-30.5 75t30.5 74.5t75.5 31.5q43 0 75 -31.5t32 -74.5t-32 -75t-75 -32zM932 1638q-43 0 -75 32t-32 75t32 74.5t75 31.5q45 0 75.5 -31.5t30.5 -74.5t-30.5 -75t-75.5 -32zM791 592v-592h-177v590l-520 844h193l415 -674l418 674h193z" glyph-name="Ydieresis" horiz-adv-x="1406" unicode="Ÿ"/><glyph d="M793 1149h-189l-155 182l-156 -182h-191l263 285h167z" glyph-name="circumflex" horiz-adv-x="894" unicode="ˆ"/><glyph d="M674 1253l-51 -47q-74 -76 -197 -4l-94 58q-94 53 -146 2l-84 -84v159l60 60q72 72 192 0l95 -58q96 -53 149 0l76 76v-162z" glyph-name="tilde" horiz-adv-x="776" unicode="˜"/><glyph d="M950 465h-848v166h848v-166z" glyph-name="endash" horiz-adv-x="1052" unicode="–"/><glyph d="M1251 465h-1149v166h1149v-166z" glyph-name="emdash" horiz-adv-x="1353" unicode="—"/><glyph d="M309 1450q-57 -43 -84 -96q39 -4 64.5 -34t25.5 -69q0 -45 -31.5 -75.5t-74.5 -30.5t-75 30.5t-32 75.5q0 31 10.5 61.5t32 63.5t63.5 53.5t101 20.5z" glyph-name="quoteleft" unicode="‘"/><glyph d="M210 1454q44 0 75.5 -31.5t31.5 -74.5q0 -16 -3 -37t-16 -51.5t-33.5 -54t-60.5 -42t-93 -18.5q57 43 84 96q-39 6 -65 36t-26 71q0 43 31 74.5t75 31.5z" glyph-name="quoteright" unicode="’"/><glyph d="M210 190q44 0 75.5 -30.5t31.5 -75.5q0 -31 -10 -61.5t-31.5 -63.5t-64.5 -54.5t-100 -21.5q57 45 84 97q-39 6 -65 35.5t-26 68.5q0 45 31 75.5t75 30.5z" glyph-name="quotesinglbase" unicode="‚"/><glyph d="M309 1452q-59 -43 -84 -94q39 -6 64.5 -36t25.5 -71q0 -43 -31.5 -74.5t-74.5 -31.5t-75 31.5t-32 74.5q0 16 3.5 37t16.5 51.5t33.5 54t60.5 41t93 17.5zM598 1452q-59 -43 -84 -94q39 -6 64.5 -36t25.5 -71q0 -43 -31.5 -74.5t-74.5 -31.5t-75 31.5t-32 74.5q0 16 3 37 t16.5 51.5t34 54t60.5 41t93 17.5z" glyph-name="quotedblleft" horiz-adv-x="708" unicode="“"/><glyph d="M210 1452q44 0 75.5 -30.5t31.5 -75.5q0 -14 -3 -35t-16 -51.5t-33.5 -54t-60.5 -41t-93 -17.5q59 43 84 94q-39 6 -65 36t-26 69q0 45 31 75.5t75 30.5zM500 1452q43 0 74.5 -30.5t31.5 -75.5q0 -14 -3 -35t-16.5 -51.5t-34 -54t-60 -41t-93.5 -17.5q59 43 84 94 q-39 6 -64.5 36t-25.5 69q0 45 32 75.5t75 30.5z" glyph-name="quotedblright" horiz-adv-x="718" unicode="”"/><glyph d="M210 195q44 0 75.5 -32t31.5 -75q0 -16 -3 -35.5t-16 -50.5t-33.5 -54.5t-60.5 -42t-93 -18.5q57 45 84 97q-39 6 -65 35.5t-26 68.5q0 43 31 75t75 32zM500 195q43 0 74.5 -32t31.5 -75q0 -16 -3 -35.5t-16.5 -50.5t-34 -54.5t-60 -42t-93.5 -18.5q59 45 84 97 q-39 6 -64.5 35.5t-25.5 68.5q0 43 32 75t75 32z" glyph-name="quotedblbase" horiz-adv-x="708" unicode="„"/><glyph d="M391 504q-41 0 -69.5 29.5t-28.5 70.5t28.5 71t69.5 30t69.5 -30t28.5 -71t-28.5 -70.5t-69.5 -29.5z" glyph-name="bullet" horiz-adv-x="782" unicode="•"/><glyph d="M209 193q43 0 74.5 -32t31.5 -75q0 -45 -31.5 -75.5t-74.5 -30.5t-75 30.5t-32 75.5q0 43 32 75t75 32zM634 193q44 0 74.5 -32t30.5 -75q0 -45 -30.5 -75.5t-74.5 -30.5t-76 30.5t-32 75.5q0 43 32 75t76 32zM1058 193q44 0 75.5 -32t31.5 -75q0 -45 -31.5 -75.5 t-75.5 -30.5t-75 30.5t-31 75.5q0 43 31 75t75 32z" glyph-name="ellipsis" horiz-adv-x="1267" unicode="…"/><glyph d="M498 741l-267 -168l267 -165v-181l-396 273v149l396 273v-181z" glyph-name="guilsinglleft" horiz-adv-x="600" unicode="‹"/><glyph d="M498 649v-149l-396 -273v181l267 165l-267 168v181z" glyph-name="guilsinglright" horiz-adv-x="600" unicode="›"/><glyph d="M1083 510h-442q63 -160 204.5 -258t319.5 -98q184 0 334 108l123 -121q-201 -160 -457 -159q-250 0 -446.5 148.5t-263.5 379.5h-351l119 117h207q-4 45 -4 90q0 37 4 74h-324l121 118h224q66 238 263 390.5t451 152.5q260 0 459 -162l-123 -121q-150 111 -336 111 q-193 0 -337 -98.5t-197 -272.5h850l-117 -118h-758q-2 -35 -2 -74q0 -45 6 -90h590z" glyph-name="Euro" horiz-adv-x="1730" unicode="€"/><glyph d="M1759 602h-172v604l-309 -385l-311 385v-604h-174v832h190l295 -371l293 371h188v-832zM719 1266h-221v-664h-172v664h-224v168h617v-168z" glyph-name="trademark" horiz-adv-x="1861" unicode="™"/><glyph d="M692 1300h-96q-66 0 -113 -30.5t-47 -89.5v-156h242v-162h-242v-862h-172v862h-162v162h162v156q0 127 92.5 199.5t239.5 72.5h96v-152zM886 1159q-42 0 -73 31t-31 73t31 72.5t73 30.5t72.5 -30.5t30.5 -72.5t-30.5 -73t-72.5 -31zM971 1024v-1024h-168v1024h168z" glyph-name="uniFB01" horiz-adv-x="1161" unicode="ﬁ"/><glyph d="M692 1300h-96q-66 0 -113 -30.5t-47 -89.5v-156h242v-162h-242v-862h-172v862h-162v162h162v156q0 127 92.5 199.5t239.5 72.5h96v-152zM995 1434v-1434h-166v1434h166z" glyph-name="uniFB02" horiz-adv-x="1142" unicode="ﬂ"/></font>
</defs>
</svg>
