<?xml version="1.0" encoding="utf-8"?>
<!-- Generator: Adobe Illustrator 18.1.0, SVG Export Plug-In . SVG Version: 6.00 Build 0)  -->
<svg version="1.1" id="Layer_1" xmlns="http://www.w3.org/2000/svg" xmlns:xlink="http://www.w3.org/1999/xlink" x="0px" y="0px"
	 viewBox="0 0 400 91.3" enable-background="new 0 0 400 91.3" xml:space="preserve">
<g>
	<g>
		<path fill="#090C0E" d="M51.4,13c-2,2.1-3.9,4.2-5.8,6.2c-1.1-0.8-2.2-1.6-3.3-2.2c-3.3-1.9-6.9-2.6-10.7-2.3
			c-3,0.2-5.6,1.1-8,2.9c-3.1,2.3-4.4,5.5-4.2,9.3c0.2,4.5,2.8,7.3,6.7,9.4c3,1.6,6.2,2.5,9.4,3.5c3,0.9,6,1.7,8.7,3.2
			c4.6,2.4,8.4,5.6,10.6,10.4c1.4,3.1,1.8,6.3,1.7,9.7c-0.1,4.3-1.2,8.2-3.9,11.6c-2.8,3.6-6.4,6.1-10.7,7.5
			c-9.4,3-18.4,1.9-26.9-2.9c-2.4-1.4-4.6-3.1-6.5-5.2c1.9-2.2,3.8-4.5,5.9-6.9c0.5,0.6,1,1.2,1.5,1.7c3.2,2.9,6.9,5,11.3,5.6
			c4.6,0.7,9.2,0.5,13.4-1.8c3.4-1.8,5.9-4.4,6.4-8.3c0.8-5.7-1.3-10.1-6.3-13.1c-2.5-1.5-5.2-2.5-8-3.4c-3.1-1-6.2-2-9.2-3.2
			c-3.6-1.4-6.9-3.5-9.6-6.4c-2.1-2.3-3.5-5-4-8.1c-0.7-4-0.3-7.9,1.1-11.7c1.4-3.7,3.9-6.5,7.2-8.7c4.9-3.3,10.4-4.4,16.3-4
			c5.9,0.4,11.1,2.3,15.6,6.1c0.3,0.3,0.7,0.6,1,0.9C51.3,12.8,51.3,12.9,51.4,13z"/>
	</g>
	<g>
		<path fill="#090C0E" d="M281.5,74.7c11.7,0,23.2,0,34.8,0c0,3,0,6,0,9c-14.8,0-29.6,0-44.4,0c0-26,0-51.9,0-77.9
			c3.2,0,6.4,0,9.6,0C281.5,28.8,281.5,51.7,281.5,74.7z"/>
	</g>
	<g>
		<polygon fill="#090C0E" points="128.7,5.8 100.4,52.2 100.4,83.7 90.7,83.7 90.7,52.3 62.5,5.8 72.4,5.8 95.5,42.4 119,5.8 		"/>
	</g>
	<g>
		<polygon fill="#090C0E" points="388.6,5.8 360.3,52.2 360.3,83.7 350.7,83.7 350.6,52.3 322.4,5.8 332.3,5.8 355.4,42.4 379,5.8 
					"/>
	</g>
	<g>
		<path fill="#090C0E" d="M202.1,5.8v13.7C192.6,31.3,183,43.1,173.4,55c-9.7-12-19.4-24-29.1-36.1v64.9h-9.6V5.8l10.2,0
			c0,0,19.3,23.4,28.3,34.8c0.1,0.1,0.1,0.2,0.2,0.3c1.1-1.4,2.1-2.7,3.2-4C184.7,26.7,202,5.8,202.1,5.8z"/>
	</g>
	<g>
		<path fill="#090C0E" d="M264.8,22.6c-1.8-7.2-6.2-12.2-13.1-14.9c-3.2-1.3-6.5-1.8-9.9-1.8c-5.8,0-11.7,0-17.5,0v9.5
			c0.1,0,0.2,0,0.3,0c5.7,0,11.3-0.1,17,0.1c5.2,0.2,9.5,2.3,12.4,6.9c1.4,2.2,1.9,4.8,1.9,7.4c0,3.2-0.8,6.2-2.8,8.7
			c-2.3,3-5.3,4.7-9,5.3c-1.2,0.2-2.4,0.3-3.6,0.3c-5.2,0-10.5,0-15.7,0h-0.6v9.4h0.6c5.3,0,10.6,0,15.9,0c3.2,0,6.4-0.3,9.5-1.3
			c6.3-2,10.9-6,13.4-12.1C266.1,34.2,266.3,28.4,264.8,22.6z"/>
	</g>
	<rect x="208.3" y="5.8" fill="#090C0E" width="10" height="78"/>
</g>
</svg>
